<svg width="37" height="33" viewBox="0 0 37 33" fill="none" xmlns="http://www.w3.org/2000/svg">
<g clip-path="url(#clip0_47_3)">
<path d="M34.3858 8.54169C33.9932 7.06356 32.8366 5.89944 31.368 5.50437C28.7061 4.7865 18.0323 4.7865 18.0323 4.7865C18.0323 4.7865 7.35857 4.7865 4.69664 5.50437C3.22807 5.8995 2.07145 7.06356 1.67889 8.54169C0.965637 11.2209 0.965637 16.8107 0.965637 16.8107C0.965637 16.8107 0.965637 22.4006 1.67889 25.0798C2.07145 26.5579 3.22807 27.6736 4.69664 28.0686C7.35857 28.7865 18.0323 28.7865 18.0323 28.7865C18.0323 28.7865 28.7061 28.7865 31.368 28.0686C32.8366 27.6736 33.9932 26.5579 34.3858 25.0798C35.099 22.4006 35.099 16.8107 35.099 16.8107C35.099 16.8107 35.099 11.2209 34.3858 8.54169V8.54169ZM14.5414 21.8859V11.7356L23.4626 16.8109L14.5414 21.8859V21.8859Z" fill="white"/>
</g>
<defs>
<clipPath id="clip0_47_3">
<rect width="36" height="32" fill="white" transform="translate(0.0323486 0.786499)"/>
</clipPath>
</defs>
</svg>
