<svg width="28" height="33" viewBox="0 0 28 33" fill="none" xmlns="http://www.w3.org/2000/svg">
<g clip-path="url(#clip0_47_7)">
<path d="M14.0062 9.59901C10.0312 9.59901 6.82499 12.8053 6.82499 16.7803C6.82499 20.7553 10.0312 23.9615 14.0062 23.9615C17.9812 23.9615 21.1875 20.7553 21.1875 16.7803C21.1875 12.8053 17.9812 9.59901 14.0062 9.59901ZM14.0062 21.449C11.4375 21.449 9.33749 19.3553 9.33749 16.7803C9.33749 14.2053 11.4312 12.1115 14.0062 12.1115C16.5812 12.1115 18.675 14.2053 18.675 16.7803C18.675 19.3553 16.575 21.449 14.0062 21.449V21.449ZM23.1562 9.30526C23.1562 10.2365 22.4062 10.9803 21.4812 10.9803C20.55 10.9803 19.8062 10.2303 19.8062 9.30526C19.8062 8.38026 20.5562 7.63026 21.4812 7.63026C22.4062 7.63026 23.1562 8.38026 23.1562 9.30526ZM27.9125 11.0053C27.8062 8.76151 27.2937 6.77401 25.65 5.13651C24.0125 3.49901 22.025 2.98651 19.7812 2.87401C17.4687 2.74276 10.5375 2.74276 8.22499 2.87401C5.98749 2.98026 3.99999 3.49276 2.35624 5.13026C0.712488 6.76776 0.206238 8.75526 0.0937378 10.999C-0.0375122 13.3115 -0.0375122 20.2428 0.0937378 22.5553C0.199988 24.799 0.712488 26.7865 2.35624 28.424C3.99999 30.0615 5.98124 30.574 8.22499 30.6865C10.5375 30.8178 17.4687 30.8178 19.7812 30.6865C22.025 30.5803 24.0125 30.0678 25.65 28.424C27.2875 26.7865 27.8 24.799 27.9125 22.5553C28.0437 20.2428 28.0437 13.3178 27.9125 11.0053V11.0053ZM24.925 25.0365C24.4375 26.2615 23.4937 27.2053 22.2625 27.699C20.4187 28.4303 16.0437 28.2615 14.0062 28.2615C11.9687 28.2615 7.58749 28.424 5.74999 27.699C4.52499 27.2115 3.58124 26.2678 3.08749 25.0365C2.35624 23.1928 2.52499 18.8178 2.52499 16.7803C2.52499 14.7428 2.36249 10.3615 3.08749 8.52401C3.57499 7.29901 4.51874 6.35526 5.74999 5.86151C7.59374 5.13026 11.9687 5.29901 14.0062 5.29901C16.0437 5.29901 20.425 5.13651 22.2625 5.86151C23.4875 6.34901 24.4312 7.29276 24.925 8.52401C25.6562 10.3678 25.4875 14.7428 25.4875 16.7803C25.4875 18.8178 25.6562 23.199 24.925 25.0365Z" fill="white"/>
</g>
<defs>
<clipPath id="clip0_47_7">
<rect width="28" height="32" fill="white" transform="translate(0 0.786499)"/>
</clipPath>
</defs>
</svg>
