<svg width="21" height="21" viewBox="0 0 21 21" fill="none" xmlns="http://www.w3.org/2000/svg">
<g clip-path="url(#clip0_53_14)">
<path d="M10.8344 0.522522C5.48285 0.522522 1.14691 4.85846 1.14691 10.21C1.14691 15.5616 5.48285 19.8975 10.8344 19.8975C16.186 19.8975 20.5219 15.5616 20.5219 10.21C20.5219 4.85846 16.186 0.522522 10.8344 0.522522ZM10.8344 18.0225C6.51801 18.0225 3.02191 14.5264 3.02191 10.21C3.02191 5.89362 6.51801 2.39752 10.8344 2.39752C15.1508 2.39752 18.6469 5.89362 18.6469 10.21C18.6469 14.5264 15.1508 18.0225 10.8344 18.0225ZM13.2485 13.9444L9.93207 11.5342C9.81097 11.4444 9.74066 11.3038 9.74066 11.1553V4.74127C9.74066 4.48346 9.9516 4.27252 10.2094 4.27252H11.4594C11.7172 4.27252 11.9282 4.48346 11.9282 4.74127V10.2764L14.5375 12.1749C14.7485 12.3272 14.7914 12.6202 14.6391 12.8311L13.9047 13.8428C13.7524 14.0499 13.4594 14.0967 13.2485 13.9444Z" fill="white"/>
</g>
<defs>
<clipPath id="clip0_53_14">
<rect width="20" height="20" fill="white" transform="translate(0.834412 0.210022)"/>
</clipPath>
</defs>
</svg>
