<svg width="24" height="21" viewBox="0 0 24 21" fill="none" xmlns="http://www.w3.org/2000/svg">
<g clip-path="url(#clip0_53_18)">
<path d="M7.08441 10.21C7.08441 7.4483 9.3227 5.21002 12.0844 5.21002C14.8461 5.21002 17.0844 7.4483 17.0844 10.21C17.0844 12.9717 14.8461 15.21 12.0844 15.21C9.3227 15.21 7.08441 12.9717 7.08441 10.21ZM12.0844 13.335C13.811 13.335 15.2094 11.9366 15.2094 10.21C15.2094 8.48346 13.811 7.08502 12.0844 7.08502H11.9711C12.0571 7.28424 12.0844 7.49518 12.0844 7.71002C12.0844 9.08893 10.9633 10.21 9.58441 10.21C9.36957 10.21 9.15863 10.1827 8.95941 10.0967V10.1749C8.95941 11.9366 10.3579 13.335 12.0844 13.335ZM4.56176 4.60846C6.40082 2.89908 8.92817 1.46002 12.0844 1.46002C15.2407 1.46002 17.768 2.89908 19.6079 4.60846C21.436 6.30377 22.6586 8.29987 23.2368 9.72955C23.3657 10.0381 23.3657 10.3819 23.2368 10.6905C22.6586 12.085 21.436 14.0811 19.6079 15.8116C17.768 17.5225 15.2407 18.96 12.0844 18.96C8.92817 18.96 6.40082 17.5225 4.56176 15.8116C2.73363 14.0811 1.51176 12.085 0.930548 10.6905C0.867086 10.5383 0.834412 10.375 0.834412 10.21C0.834412 10.0451 0.867086 9.88179 0.930548 9.72955C1.51176 8.29987 2.73363 6.30377 4.56176 4.60846ZM12.0844 3.33502C9.53754 3.33502 7.44379 4.49127 5.83832 5.97955C4.33441 7.37799 3.29613 9.00299 2.76566 10.21C3.29613 11.3819 4.33441 13.0421 5.83832 14.4405C7.44379 15.9288 9.53754 17.085 12.0844 17.085C14.6313 17.085 16.725 15.9288 18.3305 14.4405C19.8344 13.0421 20.8383 11.3819 21.4047 10.21C20.8383 9.00299 19.8344 7.37799 18.3305 5.97955C16.725 4.49127 14.6313 3.33502 12.0844 3.33502Z" fill="white"/>
</g>
<defs>
<clipPath id="clip0_53_18">
<rect width="22.5" height="20" fill="white" transform="translate(0.834412 0.210022)"/>
</clipPath>
</defs>
</svg>
