<svg width="33" height="33" viewBox="0 0 33 33" fill="none" xmlns="http://www.w3.org/2000/svg">
<g clip-path="url(#clip0_47_5)">
<path d="M28.7269 10.2688C28.7472 10.553 28.7472 10.8373 28.7472 11.1216C28.7472 19.7916 22.1482 29.7814 10.0873 29.7814C6.37155 29.7814 2.9198 28.7052 0.0162354 26.8373C0.544173 26.8982 1.05174 26.9185 1.59999 26.9185C4.66592 26.9185 7.4883 25.883 9.74211 24.1165C6.85886 24.0556 4.44261 22.1672 3.61011 19.5682C4.01624 19.6291 4.4223 19.6697 4.84874 19.6697C5.43755 19.6697 6.02642 19.5885 6.57461 19.4464C3.56955 18.8372 1.31567 16.1977 1.31567 13.0099V12.9287C2.18874 13.416 3.20405 13.7206 4.28011 13.7611C2.51361 12.5834 1.3563 10.5733 1.3563 8.29919C1.3563 7.08094 1.68111 5.96419 2.24967 4.98956C5.47811 8.96925 10.3309 11.5682 15.7725 11.8525C15.671 11.3652 15.61 10.8576 15.61 10.35C15.61 6.73575 18.5339 3.79163 22.1684 3.79163C24.0567 3.79163 25.7623 4.5835 26.9603 5.86269C28.4425 5.57844 29.8638 5.03019 31.1227 4.27894C30.6354 5.80181 29.5999 7.081 28.2395 7.89313C29.5593 7.75106 30.8385 7.3855 32.0161 6.87794C31.1229 8.17738 30.006 9.33469 28.7269 10.2688V10.2688Z" fill="white"/>
</g>
<defs>
<clipPath id="clip0_47_5">
<rect width="32" height="32" fill="white" transform="translate(0.0162354 0.786499)"/>
</clipPath>
</defs>
</svg>
