<svg width="21" height="18" viewBox="0 0 21 18" fill="none" xmlns="http://www.w3.org/2000/svg">
<g clip-path="url(#clip0_66_6)">
<path d="M5.70948 9C5.70948 6.51445 7.72393 4.5 10.2095 4.5C12.695 4.5 14.7095 6.51445 14.7095 9C14.7095 11.4855 12.695 13.5 10.2095 13.5C7.72393 13.5 5.70948 11.4855 5.70948 9ZM10.2095 11.8125C11.7634 11.8125 13.022 10.5539 13.022 9C13.022 7.44609 11.7634 6.1875 10.2095 6.1875H10.1075C10.1849 6.3668 10.2095 6.55664 10.2095 6.75C10.2095 7.99102 9.20049 9 7.95948 9C7.76612 9 7.57627 8.97539 7.39698 8.89805V8.96836C7.39698 10.5539 8.65557 11.8125 10.2095 11.8125ZM3.43908 3.95859C5.09424 2.42016 7.36885 1.125 10.2095 1.125C13.0501 1.125 15.3247 2.42016 16.9806 3.95859C18.6259 5.48438 19.7263 7.28086 20.2466 8.56758C20.3626 8.84531 20.3626 9.15469 20.2466 9.43242C19.7263 10.6875 18.6259 12.484 16.9806 14.0414C15.3247 15.5812 13.0501 16.875 10.2095 16.875C7.36885 16.875 5.09424 15.5812 3.43908 14.0414C1.79377 12.484 0.694085 10.6875 0.170995 9.43242C0.11388 9.29541 0.0844727 9.14844 0.0844727 9C0.0844727 8.85156 0.11388 8.70459 0.170995 8.56758C0.694085 7.28086 1.79377 5.48438 3.43908 3.95859ZM10.2095 2.8125C7.91729 2.8125 6.03291 3.85312 4.58799 5.19258C3.23448 6.45117 2.30002 7.91367 1.8226 9C2.30002 10.0547 3.23448 11.5488 4.58799 12.8074C6.03291 14.1469 7.91729 15.1875 10.2095 15.1875C12.5017 15.1875 14.386 14.1469 15.831 12.8074C17.1845 11.5488 18.088 10.0547 18.5978 9C18.088 7.91367 17.1845 6.45117 15.831 5.19258C14.386 3.85312 12.5017 2.8125 10.2095 2.8125Z" fill="#888888"/>
</g>
<defs>
<clipPath id="clip0_66_6">
<rect width="20.25" height="18" fill="white" transform="translate(0.0844727)"/>
</clipPath>
</defs>
</svg>
