<svg width="21" height="20" viewBox="0 0 21 20" fill="none" xmlns="http://www.w3.org/2000/svg">
<g clip-path="url(#clip0_66_8)">
<path d="M3.33333 15.8333C3.33333 15.6076 3.25087 15.4123 3.08594 15.2474C2.92101 15.0825 2.72569 15 2.5 15C2.26563 15 2.06814 15.0825 1.90755 15.2474C1.74696 15.4123 1.66667 15.6076 1.66667 15.8333C1.66667 16.0677 1.74696 16.2652 1.90755 16.4258C2.06814 16.5864 2.26563 16.6667 2.5 16.6667C2.72569 16.6667 2.92101 16.5864 3.08594 16.4258C3.25087 16.2652 3.33333 16.0677 3.33333 15.8333ZM5.41667 9.16667V17.5C5.41667 17.7257 5.3342 17.921 5.16927 18.0859C5.00434 18.2509 4.80903 18.3333 4.58333 18.3333H0.833333C0.607639 18.3333 0.412326 18.2509 0.247396 18.0859C0.0824653 17.921 0 17.7257 0 17.5V9.16667C0 8.94097 0.0824653 8.74566 0.247396 8.58073C0.412326 8.4158 0.607639 8.33333 0.833333 8.33333H4.58333C4.80903 8.33333 5.00434 8.4158 5.16927 8.58073C5.3342 8.74566 5.41667 8.94097 5.41667 9.16667ZM20.8333 9.16667C20.8333 9.91319 20.5946 10.5599 20.1172 11.1068C20.2474 11.4887 20.3125 11.8186 20.3125 12.0964C20.3385 12.7561 20.1519 13.3507 19.7526 13.8802C19.9002 14.3663 19.9002 14.8741 19.7526 15.4036C19.6224 15.8984 19.388 16.3064 19.0495 16.6276C19.1276 17.5998 18.9149 18.3854 18.4115 18.9844C17.8559 19.6441 17.0009 19.9826 15.8464 20H14.1667C13.5938 20 12.9688 19.9327 12.2917 19.7982C11.6146 19.6636 11.0872 19.5378 10.7096 19.4206C10.332 19.3034 9.80903 19.1319 9.14063 18.9062C8.07292 18.533 7.38715 18.342 7.08333 18.3333C6.85764 18.3247 6.66233 18.24 6.4974 18.0794C6.33247 17.9188 6.25 17.7257 6.25 17.5V9.15365C6.25 8.93663 6.32813 8.74783 6.48438 8.58724C6.64063 8.42665 6.82726 8.33767 7.04427 8.32031C7.2526 8.30295 7.58247 8.04687 8.03385 7.55208C8.48524 7.05729 8.92361 6.53212 9.34896 5.97656C9.93924 5.22135 10.3776 4.70052 10.6641 4.41406C10.8203 4.25781 10.9549 4.04948 11.0677 3.78906C11.1806 3.52865 11.2565 3.31814 11.2956 3.15755C11.3346 2.99696 11.3932 2.73437 11.4714 2.36979C11.5321 2.03125 11.5864 1.76649 11.6341 1.57552C11.6819 1.38455 11.7665 1.15885 11.888 0.898437C12.0095 0.638021 12.1571 0.421007 12.3307 0.247396C12.4957 0.0824653 12.691 0 12.9167 0C13.316 0 13.674 0.0455729 13.9909 0.136719C14.3077 0.227865 14.5681 0.340712 14.7721 0.47526C14.9761 0.609809 15.1497 0.78559 15.293 1.0026C15.4362 1.21962 15.5404 1.41493 15.6055 1.58854C15.6706 1.76215 15.7227 1.97917 15.7617 2.23958C15.8008 2.5 15.8225 2.69531 15.8268 2.82552C15.8312 2.95573 15.8333 3.125 15.8333 3.33333C15.8333 3.66319 15.7921 3.99306 15.7096 4.32292C15.6272 4.65278 15.5447 4.91319 15.4622 5.10417C15.3798 5.29514 15.2604 5.53819 15.1042 5.83333C15.0781 5.88542 15.0347 5.96354 14.974 6.06771C14.9132 6.17187 14.8655 6.26736 14.8307 6.35417C14.796 6.44097 14.7613 6.54514 14.7266 6.66667H18.3333C19.0104 6.66667 19.5964 6.91406 20.0911 7.40885C20.5859 7.90365 20.8333 8.48958 20.8333 9.16667Z" fill="#888888"/>
</g>
<defs>
<clipPath id="clip0_66_8">
<rect width="20.8333" height="20" fill="white"/>
</clipPath>
</defs>
</svg>
