<svg width="22" height="21" viewBox="0 0 22 21" fill="none" xmlns="http://www.w3.org/2000/svg">
<g clip-path="url(#clip0_53_22)">
<path d="M4.33114 16.0434C4.33114 15.8177 4.24867 15.6223 4.08374 15.4574C3.91881 15.2925 3.7235 15.21 3.4978 15.21C3.26343 15.21 3.06595 15.2925 2.90535 15.4574C2.74476 15.6223 2.66447 15.8177 2.66447 16.0434C2.66447 16.2777 2.74476 16.4752 2.90535 16.6358C3.06595 16.7964 3.26343 16.8767 3.4978 16.8767C3.7235 16.8767 3.91881 16.7964 4.08374 16.6358C4.24867 16.4752 4.33114 16.2777 4.33114 16.0434ZM6.41447 9.37669V17.71C6.41447 17.9357 6.332 18.131 6.16707 18.296C6.00214 18.4609 5.80683 18.5434 5.58114 18.5434H1.83114C1.60544 18.5434 1.41013 18.4609 1.2452 18.296C1.08027 18.131 0.997803 17.9357 0.997803 17.71V9.37669C0.997803 9.15099 1.08027 8.95568 1.2452 8.79075C1.41013 8.62582 1.60544 8.54336 1.83114 8.54336H5.58114C5.80683 8.54336 6.00214 8.62582 6.16707 8.79075C6.332 8.95568 6.41447 9.15099 6.41447 9.37669ZM21.8311 9.37669C21.8311 10.1232 21.5924 10.7699 21.115 11.3168C21.2452 11.6987 21.3103 12.0286 21.3103 12.3064C21.3363 12.9661 21.1497 13.5607 20.7504 14.0902C20.898 14.5763 20.898 15.0842 20.7504 15.6137C20.6202 16.1085 20.3858 16.5164 20.0473 16.8376C20.1254 17.8098 19.9127 18.5954 19.4093 19.1944C18.8537 19.8541 17.9987 20.1927 16.8442 20.21H15.1645C14.5916 20.21 13.9666 20.1427 13.2895 20.0082C12.6124 19.8736 12.085 19.7478 11.7074 19.6306C11.3298 19.5134 10.8068 19.342 10.1384 19.1163C9.07072 18.743 8.38496 18.552 8.08114 18.5434C7.85544 18.5347 7.66013 18.45 7.4952 18.2894C7.33027 18.1289 7.2478 17.9357 7.2478 17.71V9.36367C7.2478 9.14665 7.32593 8.95785 7.48218 8.79726C7.63843 8.63667 7.82506 8.5477 8.04207 8.53033C8.25041 8.51297 8.58027 8.2569 9.03166 7.76211C9.48305 7.26731 9.92141 6.74214 10.3468 6.18658C10.937 5.43138 11.3754 4.91054 11.6619 4.62408C11.8181 4.46783 11.9527 4.2595 12.0655 3.99908C12.1784 3.73867 12.2543 3.52816 12.2934 3.36757C12.3324 3.20698 12.391 2.9444 12.4692 2.57981C12.5299 2.24127 12.5842 1.97651 12.6319 1.78554C12.6797 1.59457 12.7643 1.36888 12.8858 1.10846C13.0074 0.848043 13.1549 0.631029 13.3285 0.457418C13.4935 0.292487 13.6888 0.210022 13.9145 0.210022C14.3138 0.210022 14.6718 0.255595 14.9887 0.346741C15.3055 0.437887 15.5659 0.550734 15.7699 0.685282C15.9739 0.819831 16.1475 0.995612 16.2908 1.21263C16.434 1.42964 16.5382 1.62495 16.6033 1.79856C16.6684 1.97217 16.7205 2.18919 16.7595 2.44961C16.7986 2.71002 16.8203 2.90533 16.8246 3.03554C16.829 3.16575 16.8311 3.33502 16.8311 3.54336C16.8311 3.87322 16.7899 4.20308 16.7074 4.53294C16.625 4.8628 16.5425 5.12322 16.46 5.31419C16.3776 5.50516 16.2582 5.74822 16.102 6.04336C16.0759 6.09544 16.0325 6.17356 15.9718 6.27773C15.911 6.3819 15.8633 6.47738 15.8285 6.56419C15.7938 6.65099 15.7591 6.75516 15.7244 6.87669H19.3311C20.0082 6.87669 20.5942 7.12408 21.0889 7.61888C21.5837 8.11367 21.8311 8.69961 21.8311 9.37669Z" fill="white"/>
</g>
<defs>
<clipPath id="clip0_53_22">
<rect width="20.8333" height="20" fill="white" transform="translate(0.997803 0.210022)"/>
</clipPath>
</defs>
</svg>
